<svg xmlns="http://www.w3.org/2000/svg" xmlns:xlink="http://www.w3.org/1999/xlink" width="500" zoomAndPan="magnify" viewBox="0 0 375 374.999991" height="500" preserveAspectRatio="xMidYMid meet" version="1.0"><defs><g/><clipPath id="a09d6c2195"><path d="M 0.214844 28.011719 L 360.359375 28.011719 L 360.359375 313 L 0.214844 313 Z M 0.214844 28.011719 " clip-rule="nonzero"/></clipPath><clipPath id="4071199a40"><rect x="0" width="302" y="0" height="375"/></clipPath><clipPath id="6402d854c2"><rect x="0" width="361" y="0" height="375"/></clipPath></defs><g transform="matrix(1, 0, 0, 1, 3, 0)"><g clip-path="url(#6402d854c2)"><g clip-path="url(#a09d6c2195)"><path fill="#04724d" d="M 119.664062 27.808594 C 119.078125 27.828125 118.496094 27.882812 117.917969 27.972656 C 117.339844 28.0625 116.769531 28.183594 116.203125 28.339844 C 115.640625 28.496094 115.085938 28.683594 114.542969 28.90625 C 114 29.125 113.472656 29.378906 112.960938 29.660156 C 112.449219 29.945312 111.953125 30.253906 111.476562 30.59375 C 111 30.9375 110.546875 31.304688 110.113281 31.695312 C 109.679688 32.089844 109.269531 32.507812 108.886719 32.949219 C 108.5 33.390625 108.144531 33.855469 107.816406 34.339844 C 107.484375 34.820312 107.183594 35.324219 106.910156 35.839844 C 106.640625 36.359375 106.398438 36.894531 106.191406 37.441406 C 105.980469 37.988281 105.804688 38.542969 105.660156 39.113281 C 105.519531 39.679688 105.40625 40.253906 105.332031 40.835938 C 105.253906 41.414062 105.210938 41.996094 105.203125 42.582031 C 105.195312 43.167969 105.222656 43.753906 105.28125 44.335938 C 105.34375 44.917969 105.4375 45.496094 105.5625 46.066406 C 105.691406 46.636719 105.851562 47.199219 106.046875 47.753906 L 116.121094 78.003906 C 75.863281 89.949219 44.554688 122.453125 34.148438 163.34375 C 15.1875 165.210938 0.320312 181 0.320312 200.453125 C 0.320312 221.160156 17.101562 237.9375 37.808594 237.9375 L 39.125 237.9375 C 56.933594 281.875 99.945312 312.910156 150.269531 312.910156 L 210.246094 312.910156 C 260.570312 312.910156 303.582031 281.875 321.386719 237.9375 L 322.707031 237.9375 C 343.414062 237.9375 360.191406 221.160156 360.191406 200.453125 C 360.191406 181 345.328125 165.210938 326.367188 163.34375 C 315.960938 122.453125 284.652344 89.949219 244.394531 78.003906 L 254.46875 47.753906 C 254.664062 47.191406 254.828125 46.621094 254.957031 46.039062 C 255.085938 45.460938 255.175781 44.875 255.234375 44.28125 C 255.292969 43.691406 255.316406 43.097656 255.304688 42.503906 C 255.292969 41.910156 255.246094 41.316406 255.164062 40.726562 C 255.082031 40.140625 254.964844 39.558594 254.8125 38.984375 C 254.664062 38.40625 254.476562 37.84375 254.257812 37.292969 C 254.039062 36.738281 253.789062 36.199219 253.507812 35.675781 C 253.226562 35.15625 252.914062 34.648438 252.570312 34.164062 C 252.226562 33.679688 251.859375 33.214844 251.460938 32.773438 C 251.0625 32.332031 250.640625 31.914062 250.191406 31.523438 C 249.746094 31.128906 249.277344 30.765625 248.785156 30.429688 C 248.296875 30.09375 247.789062 29.789062 247.261719 29.515625 C 246.734375 29.238281 246.191406 28.996094 245.636719 28.785156 C 245.082031 28.574219 244.515625 28.394531 243.9375 28.253906 C 243.359375 28.109375 242.777344 28 242.1875 27.925781 C 241.597656 27.851562 241.007812 27.8125 240.410156 27.808594 C 239.617188 27.800781 238.824219 27.859375 238.039062 27.976562 C 237.25 28.097656 236.480469 28.28125 235.722656 28.523438 C 234.964844 28.765625 234.230469 29.066406 233.519531 29.425781 C 232.808594 29.785156 232.132812 30.199219 231.488281 30.667969 C 230.84375 31.132812 230.242188 31.648438 229.679688 32.210938 C 229.117188 32.777344 228.601562 33.378906 228.136719 34.023438 C 227.671875 34.671875 227.257812 35.347656 226.902344 36.058594 C 226.542969 36.769531 226.242188 37.503906 226.003906 38.261719 L 214.347656 73.203125 C 212.976562 73.15625 211.628906 72.996094 210.246094 72.996094 L 150.269531 72.996094 C 148.886719 72.996094 147.539062 73.15625 146.167969 73.203125 L 134.511719 38.261719 C 134.265625 37.488281 133.957031 36.734375 133.589844 36.007812 C 133.222656 35.28125 132.796875 34.589844 132.316406 33.933594 C 131.835938 33.277344 131.304688 32.664062 130.722656 32.09375 C 130.140625 31.519531 129.515625 31 128.851562 30.53125 C 128.183594 30.0625 127.484375 29.652344 126.75 29.296875 C 126.019531 28.941406 125.261719 28.648438 124.480469 28.417969 C 123.699219 28.183594 122.90625 28.019531 122.097656 27.917969 C 121.289062 27.8125 120.476562 27.777344 119.664062 27.808594 Z M 150.269531 102.984375 L 210.246094 102.984375 C 259.847656 102.984375 300.214844 143.351562 300.214844 192.953125 C 300.214844 242.554688 259.847656 282.921875 210.246094 282.921875 L 150.269531 282.921875 C 100.667969 282.921875 60.300781 242.554688 60.300781 192.953125 C 60.300781 143.351562 100.667969 102.984375 150.269531 102.984375 Z M 150.269531 132.976562 C 117.191406 132.976562 90.289062 159.875 90.289062 192.953125 C 90.289062 226.03125 117.191406 252.933594 150.269531 252.933594 L 210.246094 252.933594 C 243.324219 252.933594 270.226562 226.03125 270.226562 192.953125 C 270.226562 159.875 243.324219 132.976562 210.246094 132.976562 Z M 135.273438 177.960938 C 143.550781 177.960938 150.269531 184.675781 150.269531 192.953125 C 150.269531 201.230469 143.550781 207.949219 135.273438 207.949219 C 126.996094 207.949219 120.277344 201.230469 120.277344 192.953125 C 120.277344 184.675781 126.996094 177.960938 135.273438 177.960938 Z M 225.242188 177.960938 C 233.519531 177.960938 240.234375 184.675781 240.234375 192.953125 C 240.234375 201.230469 233.519531 207.949219 225.242188 207.949219 C 216.964844 207.949219 210.246094 201.230469 210.246094 192.953125 C 210.246094 184.675781 216.964844 177.960938 225.242188 177.960938 Z M 225.242188 177.960938 " fill-opacity="1" fill-rule="nonzero"/></g><g transform="matrix(1, 0, 0, 1, 32, 0)"><g clip-path="url(#4071199a40)"><g fill="#04724d" fill-opacity="1"><g transform="translate(3.345708, 317.767448)"><g><path d="M 283.15625 -120.125 C 283.15625 -99.382812 277.34375 -79.804688 265.71875 -61.390625 C 254.101562 -42.984375 238.195312 -28.0625 218 -16.625 C 197.800781 -5.1875 174.648438 0.710938 148.546875 1.078125 C 148.191406 1.078125 147.925781 0.894531 147.75 0.53125 C 147.570312 0.175781 147.484375 0 147.484375 0 C 147.117188 0 146.9375 0.175781 146.9375 0.53125 C 146.9375 0.894531 146.9375 1.078125 146.9375 1.078125 C 129.78125 1.078125 113.066406 -1.867188 96.796875 -7.765625 C 80.523438 -13.671875 65.953125 -21.984375 53.078125 -32.703125 C 40.210938 -43.429688 29.9375 -56.210938 22.25 -71.046875 C 14.5625 -85.890625 10.71875 -102.25 10.71875 -120.125 C 10.71875 -141.570312 16.617188 -161.320312 28.421875 -179.375 C 40.222656 -197.4375 56.398438 -211.921875 76.953125 -222.828125 C 97.515625 -233.734375 120.84375 -239.1875 146.9375 -239.1875 L 147.484375 -239.1875 C 147.484375 -239.1875 147.660156 -239.1875 148.015625 -239.1875 C 148.367188 -239.1875 148.546875 -239.1875 148.546875 -239.1875 C 173.210938 -239.1875 195.734375 -234 216.109375 -223.625 C 236.492188 -213.257812 252.765625 -199.140625 264.921875 -181.265625 C 277.078125 -163.390625 283.15625 -143.007812 283.15625 -120.125 Z M 147.484375 -76.15625 C 163.210938 -76.15625 175.546875 -80.175781 184.484375 -88.21875 C 193.421875 -96.257812 198.066406 -106.894531 198.421875 -120.125 C 198.421875 -132.632812 193.863281 -142.820312 184.75 -150.6875 C 175.632812 -158.5625 163.210938 -162.5 147.484375 -162.5 C 131.742188 -162.5 119.226562 -158.5625 109.9375 -150.6875 C 100.644531 -142.820312 96 -132.632812 96 -120.125 C 96 -107.257812 100.644531 -96.710938 109.9375 -88.484375 C 119.226562 -80.265625 131.742188 -76.15625 147.484375 -76.15625 Z M 147.484375 -76.15625 "/></g></g></g></g></g></g></g></svg>