<svg xmlns="http://www.w3.org/2000/svg" xmlns:xlink="http://www.w3.org/1999/xlink" width="500" zoomAndPan="magnify" viewBox="0 0 375 374.999991" height="500" preserveAspectRatio="xMidYMid meet" version="1.0"><defs><g/><clipPath id="d745496d42"><path d="M 103.578125 146.40625 L 168.078125 146.40625 L 168.078125 197.40625 L 103.578125 197.40625 Z M 103.578125 146.40625 " clip-rule="nonzero"/></clipPath><clipPath id="0a518f6d53"><rect x="0" width="246" y="0" height="165"/></clipPath><clipPath id="46df41f1c7"><rect x="0" width="111" y="0" height="173"/></clipPath></defs><g clip-path="url(#d745496d42)"><path fill="#ffffff" d="M 125.042969 146.367188 C 124.832031 146.375 124.625 146.40625 124.421875 146.464844 C 124.214844 146.519531 124.023438 146.597656 123.835938 146.699219 C 123.652344 146.804688 123.480469 146.925781 123.324219 147.066406 C 123.167969 147.207031 123.03125 147.367188 122.914062 147.542969 C 122.792969 147.714844 122.695312 147.902344 122.621094 148.097656 C 122.546875 148.296875 122.496094 148.5 122.464844 148.707031 C 122.4375 148.917969 122.4375 149.128906 122.457031 149.335938 C 122.480469 149.546875 122.523438 149.753906 122.59375 149.953125 L 124.40625 155.386719 C 117.171875 157.53125 111.546875 163.371094 109.675781 170.71875 C 106.269531 171.054688 103.601562 173.890625 103.601562 177.386719 C 103.601562 181.105469 106.613281 184.121094 110.335938 184.121094 L 110.570312 184.121094 C 113.769531 192.015625 121.5 197.59375 130.539062 197.59375 L 141.316406 197.59375 C 150.359375 197.59375 158.085938 192.015625 161.285156 184.121094 L 161.523438 184.121094 C 165.242188 184.121094 168.257812 181.105469 168.257812 177.386719 C 168.257812 173.890625 165.585938 171.054688 162.179688 170.71875 C 160.308594 163.371094 154.683594 157.53125 147.453125 155.386719 L 149.261719 149.953125 C 149.332031 149.75 149.378906 149.542969 149.398438 149.328125 C 149.421875 149.113281 149.417969 148.902344 149.386719 148.6875 C 149.359375 148.476562 149.304688 148.269531 149.222656 148.070312 C 149.144531 147.871094 149.042969 147.683594 148.921875 147.511719 C 148.796875 147.335938 148.65625 147.175781 148.492188 147.035156 C 148.332031 146.894531 148.15625 146.773438 147.96875 146.675781 C 147.777344 146.574219 147.578125 146.5 147.371094 146.449219 C 147.160156 146.394531 146.949219 146.371094 146.738281 146.367188 C 146.449219 146.367188 146.167969 146.410156 145.894531 146.496094 C 145.621094 146.585938 145.367188 146.710938 145.132812 146.882812 C 144.898438 147.050781 144.699219 147.25 144.53125 147.484375 C 144.363281 147.71875 144.234375 147.972656 144.148438 148.246094 L 142.054688 154.523438 C 141.808594 154.515625 141.566406 154.488281 141.316406 154.488281 L 130.539062 154.488281 C 130.292969 154.488281 130.050781 154.515625 129.804688 154.523438 L 127.710938 148.246094 C 127.621094 147.964844 127.488281 147.707031 127.316406 147.46875 C 127.140625 147.230469 126.933594 147.027344 126.691406 146.859375 C 126.453125 146.6875 126.191406 146.5625 125.90625 146.476562 C 125.625 146.394531 125.335938 146.355469 125.042969 146.367188 Z M 130.539062 159.875 L 141.316406 159.875 C 150.230469 159.875 157.480469 167.128906 157.480469 176.039062 C 157.480469 184.953125 150.230469 192.203125 141.316406 192.203125 L 130.539062 192.203125 C 121.628906 192.203125 114.375 184.953125 114.375 176.039062 C 114.375 167.128906 121.628906 159.875 130.539062 159.875 Z M 130.539062 165.261719 C 124.597656 165.261719 119.765625 170.097656 119.765625 176.039062 C 119.765625 181.984375 124.597656 186.816406 130.539062 186.816406 L 141.316406 186.816406 C 147.261719 186.816406 152.09375 181.984375 152.09375 176.039062 C 152.09375 170.097656 147.261719 165.261719 141.316406 165.261719 Z M 127.847656 173.34375 C 129.332031 173.34375 130.539062 174.550781 130.539062 176.039062 C 130.539062 177.527344 129.332031 178.734375 127.847656 178.734375 C 126.359375 178.734375 125.152344 177.527344 125.152344 176.039062 C 125.152344 174.550781 126.359375 173.34375 127.847656 173.34375 Z M 144.011719 173.34375 C 145.496094 173.34375 146.703125 174.550781 146.703125 176.039062 C 146.703125 177.527344 145.496094 178.734375 144.011719 178.734375 C 142.523438 178.734375 141.316406 177.527344 141.316406 176.039062 C 141.316406 174.550781 142.523438 173.34375 144.011719 173.34375 Z M 144.011719 173.34375 " fill-opacity="1" fill-rule="nonzero"/></g><g transform="matrix(1, 0, 0, 1, 109, 102)"><g clip-path="url(#0a518f6d53)"><g fill="#ffffff" fill-opacity="1"><g transform="translate(0.592653, 96.46886)"><g><path d="M 50.875 -21.578125 C 50.875 -17.859375 49.828125 -14.34375 47.734375 -11.03125 C 45.648438 -7.726562 42.789062 -5.046875 39.15625 -2.984375 C 35.53125 -0.929688 31.375 0.125 26.6875 0.1875 C 26.625 0.1875 26.578125 0.15625 26.546875 0.09375 C 26.515625 0.03125 26.5 0 26.5 0 C 26.4375 0 26.40625 0.03125 26.40625 0.09375 C 26.40625 0.15625 26.40625 0.1875 26.40625 0.1875 C 23.320312 0.1875 20.316406 -0.335938 17.390625 -1.390625 C 14.472656 -2.453125 11.859375 -3.945312 9.546875 -5.875 C 7.234375 -7.800781 5.382812 -10.097656 4 -12.765625 C 2.613281 -15.429688 1.921875 -18.367188 1.921875 -21.578125 C 1.921875 -25.429688 2.976562 -28.976562 5.09375 -32.21875 C 7.21875 -35.46875 10.128906 -38.070312 13.828125 -40.03125 C 17.523438 -41.988281 21.71875 -42.96875 26.40625 -42.96875 L 26.5 -42.96875 C 26.5 -42.96875 26.53125 -42.96875 26.59375 -42.96875 C 26.65625 -42.96875 26.6875 -42.96875 26.6875 -42.96875 C 31.125 -42.96875 35.171875 -42.035156 38.828125 -40.171875 C 42.492188 -38.316406 45.414062 -35.78125 47.59375 -32.5625 C 49.78125 -29.351562 50.875 -25.691406 50.875 -21.578125 Z M 26.5 -13.6875 C 29.320312 -13.6875 31.535156 -14.40625 33.140625 -15.84375 C 34.753906 -17.289062 35.59375 -19.203125 35.65625 -21.578125 C 35.65625 -23.828125 34.832031 -25.660156 33.1875 -27.078125 C 31.550781 -28.492188 29.320312 -29.203125 26.5 -29.203125 C 23.675781 -29.203125 21.425781 -28.492188 19.75 -27.078125 C 18.082031 -25.660156 17.25 -23.828125 17.25 -21.578125 C 17.25 -19.265625 18.082031 -17.367188 19.75 -15.890625 C 21.425781 -14.421875 23.675781 -13.6875 26.5 -13.6875 Z M 26.5 -13.6875 "/></g></g></g><g fill="#ffffff" fill-opacity="1"><g transform="translate(54.163395, 96.46886)"><g><path d="M 19.265625 -28.328125 C 19.015625 -22.804688 19.335938 -17.941406 20.234375 -13.734375 C 21.128906 -9.523438 22.988281 -6.019531 25.8125 -3.21875 C 28.644531 -0.425781 32.757812 1.671875 38.15625 3.078125 L 38.15625 24.578125 C 30.894531 23.609375 24.867188 21.453125 20.078125 18.109375 C 15.296875 14.773438 11.601562 10.441406 9 5.109375 C 6.40625 -0.222656 4.722656 -6.328125 3.953125 -13.203125 C 3.179688 -20.078125 3.148438 -27.5625 3.859375 -35.65625 C 4.046875 -37.90625 4.363281 -40.441406 4.8125 -43.265625 C 5.269531 -46.085938 5.816406 -48.992188 6.453125 -51.984375 C 7.097656 -54.972656 7.835938 -57.816406 8.671875 -60.515625 C 9.503906 -63.210938 10.375 -65.523438 11.28125 -67.453125 L 28.421875 -67.453125 C 26.816406 -64.171875 25.304688 -60.265625 23.890625 -55.734375 C 22.484375 -51.210938 21.425781 -46.800781 20.71875 -42.5 C 22.90625 -42.5 24.976562 -42.476562 26.9375 -42.4375 C 28.894531 -42.40625 30.53125 -42.375 31.84375 -42.34375 C 33.164062 -42.3125 33.921875 -42.234375 34.109375 -42.109375 L 34.109375 -28.328125 C 34.046875 -28.328125 33.914062 -28.34375 33.71875 -28.375 C 33.53125 -28.40625 32.984375 -28.421875 32.078125 -28.421875 C 31.179688 -28.421875 29.738281 -28.40625 27.75 -28.375 C 25.757812 -28.34375 22.929688 -28.328125 19.265625 -28.328125 Z M 19.265625 -28.328125 "/></g></g></g><g fill="#ffffff" fill-opacity="1"><g transform="translate(88.464085, 96.46886)"><g><path d="M 17.734375 -50.875 C 15.742188 -50.875 13.925781 -51.367188 12.28125 -52.359375 C 10.644531 -53.359375 9.328125 -54.691406 8.328125 -56.359375 C 7.335938 -58.035156 6.84375 -59.867188 6.84375 -61.859375 C 6.84375 -63.921875 7.335938 -65.769531 8.328125 -67.40625 C 9.328125 -69.039062 10.644531 -70.351562 12.28125 -71.34375 C 13.925781 -72.34375 15.742188 -72.84375 17.734375 -72.84375 C 19.785156 -72.84375 21.628906 -72.34375 23.265625 -71.34375 C 24.910156 -70.351562 26.226562 -69.039062 27.21875 -67.40625 C 28.21875 -65.769531 28.71875 -63.921875 28.71875 -61.859375 C 28.71875 -59.867188 28.21875 -58.035156 27.21875 -56.359375 C 26.226562 -54.691406 24.910156 -53.359375 23.265625 -52.359375 C 21.628906 -51.367188 19.785156 -50.875 17.734375 -50.875 Z M 4.71875 -5.96875 C 3.820312 -11.882812 3.421875 -17.84375 3.515625 -23.84375 C 3.609375 -29.851562 4.039062 -36.488281 4.8125 -43.75 L 19.75 -43.75 C 19.039062 -36.363281 19.039062 -29.601562 19.75 -23.46875 C 20.457031 -17.332031 21.679688 -11.5 23.421875 -5.96875 Z M 4.71875 -5.96875 "/></g></g></g><g fill="#ffffff" fill-opacity="1"><g transform="translate(112.8407, 96.46886)"><g><path d="M 35.265625 -71.203125 C 28.710938 -69.597656 24.070312 -66.769531 21.34375 -62.71875 C 18.613281 -58.675781 16.992188 -53.570312 16.484375 -47.40625 C 20.910156 -47.40625 24.328125 -47.40625 26.734375 -47.40625 C 29.148438 -47.40625 30.867188 -47.40625 31.890625 -47.40625 C 32.921875 -47.40625 33.546875 -47.390625 33.765625 -47.359375 C 33.992188 -47.328125 34.109375 -47.3125 34.109375 -47.3125 L 34.109375 -33.53125 C 33.847656 -33.46875 32.785156 -33.40625 30.921875 -33.34375 C 29.066406 -33.28125 26.835938 -33.226562 24.234375 -33.1875 C 21.628906 -33.15625 19.046875 -33.140625 16.484375 -33.140625 C 16.546875 -32.304688 16.609375 -31.472656 16.671875 -30.640625 C 16.734375 -29.804688 16.796875 -28.941406 16.859375 -28.046875 C 17.179688 -24.503906 17.742188 -20.582031 18.546875 -16.28125 C 19.347656 -11.976562 20.359375 -7.769531 21.578125 -3.65625 C 22.804688 0.445312 24.125 4.078125 25.53125 7.234375 L 8.390625 7.234375 C 7.484375 5.046875 6.613281 2.457031 5.78125 -0.53125 C 4.945312 -3.519531 4.207031 -6.664062 3.5625 -9.96875 C 2.925781 -13.28125 2.378906 -16.507812 1.921875 -19.65625 C 1.472656 -22.800781 1.15625 -25.628906 0.96875 -28.140625 C 0.257812 -37.128906 0.289062 -45.445312 1.0625 -53.09375 C 1.832031 -60.738281 3.515625 -67.515625 6.109375 -73.421875 C 8.710938 -79.335938 12.40625 -84.15625 17.1875 -87.875 C 21.976562 -91.601562 28.003906 -94.015625 35.265625 -95.109375 Z M 35.265625 -71.203125 "/></g></g></g><g fill="#ffffff" fill-opacity="1"><g transform="translate(148.104889, 96.46886)"><g><path d="M 47.015625 -48.375 C 50.492188 -46.507812 53.453125 -43.890625 55.890625 -40.515625 C 58.328125 -37.140625 60.203125 -33.425781 61.515625 -29.375 C 62.835938 -25.332031 63.5 -21.257812 63.5 -17.15625 C 63.5 -9.570312 62.820312 -2.488281 61.46875 4.09375 C 60.125 10.675781 57.972656 16.457031 55.015625 21.4375 C 52.066406 26.414062 48.179688 30.300781 43.359375 33.09375 C 38.546875 35.894531 32.671875 37.296875 25.734375 37.296875 C 19.628906 37.296875 14.195312 36.25 9.4375 34.15625 C 4.6875 32.070312 0.960938 29.195312 -1.734375 25.53125 C -4.429688 21.875 -5.78125 17.765625 -5.78125 13.203125 C -5.78125 8.191406 -4.75 4.03125 -2.6875 0.71875 C -0.632812 -2.582031 2.15625 -5.179688 5.6875 -7.078125 C 9.21875 -8.972656 13.28125 -10.257812 17.875 -10.9375 C 22.46875 -11.613281 27.347656 -11.820312 32.515625 -11.5625 C 37.691406 -11.300781 42.878906 -10.691406 48.078125 -9.734375 C 48.210938 -10.828125 48.3125 -11.914062 48.375 -13 C 48.4375 -14.09375 48.5 -15.253906 48.5625 -16.484375 C 48.625 -18.472656 48.492188 -20.492188 48.171875 -22.546875 C 47.859375 -24.597656 47.410156 -26.585938 46.828125 -28.515625 C 45.160156 -26.203125 42.878906 -24.082031 39.984375 -22.15625 C 37.097656 -20.226562 33.691406 -18.703125 29.765625 -17.578125 C 25.847656 -16.460938 21.515625 -15.9375 16.765625 -16 C 12.203125 -16 8.570312 -17.25 5.875 -19.75 C 3.175781 -22.257812 1.410156 -25.617188 0.578125 -29.828125 C -0.253906 -34.035156 -0.144531 -38.722656 0.90625 -43.890625 C 1.96875 -49.066406 3.976562 -54.285156 6.9375 -59.546875 L 26.3125 -59.546875 C 24.25 -56.140625 22.398438 -52.703125 20.765625 -49.234375 C 19.128906 -45.765625 17.957031 -42.582031 17.25 -39.6875 C 16.539062 -36.800781 16.523438 -34.472656 17.203125 -32.703125 C 17.878906 -30.941406 19.46875 -30.0625 21.96875 -30.0625 C 25.820312 -30.0625 28.921875 -30.71875 31.265625 -32.03125 C 33.609375 -33.351562 35.082031 -35.140625 35.6875 -37.390625 C 36.300781 -39.640625 35.9375 -42.113281 34.59375 -44.8125 L 34.984375 -44.8125 Z M 65.71875 -4.71875 C 70.46875 -3.050781 75.347656 -0.851562 80.359375 1.875 C 85.367188 4.601562 90.476562 7.863281 95.6875 11.65625 L 95.6875 38.0625 C 88.75 31.769531 82.566406 26.484375 77.140625 22.203125 C 71.710938 17.929688 66.71875 14.445312 62.15625 11.75 C 63.050781 9.1875 63.785156 6.535156 64.359375 3.796875 C 64.941406 1.066406 65.394531 -1.769531 65.71875 -4.71875 Z M 25.828125 21.96875 C 30.578125 21.96875 34.492188 20.3125 37.578125 17 C 40.660156 13.695312 43.101562 9.476562 44.90625 4.34375 C 41.300781 3.375 37.523438 2.695312 33.578125 2.3125 C 29.628906 1.925781 25.9375 1.941406 22.5 2.359375 C 19.0625 2.773438 16.265625 3.753906 14.109375 5.296875 C 11.960938 6.835938 10.890625 9.054688 10.890625 11.953125 C 10.890625 14.835938 12.1875 17.226562 14.78125 19.125 C 17.382812 21.019531 21.066406 21.96875 25.828125 21.96875 Z M 25.828125 21.96875 "/></g></g></g></g></g><g transform="matrix(1, 0, 0, 1, 14, 101)"><g clip-path="url(#46df41f1c7)"><g fill="#ffffff" fill-opacity="1"><g transform="translate(16.452822, 100.702194)"><g><path d="M 55.5 0.3125 C 58.207031 0.3125 60.507812 -0.347656 62.40625 -1.671875 C 64.300781 -2.992188 65.25 -4.910156 65.25 -7.421875 C 65.25 -9.796875 64.25 -11.757812 62.25 -13.3125 C 60.25 -14.875 57.660156 -15.65625 54.484375 -15.65625 C 52.515625 -15.65625 50.476562 -15.332031 48.375 -14.6875 C 46.28125 -14.039062 44.21875 -13.144531 42.1875 -12 C 41.164062 -14.09375 40.316406 -16.410156 39.640625 -18.953125 C 38.960938 -21.492188 38.519531 -24.085938 38.3125 -26.734375 C 41.09375 -27.816406 43.957031 -28.644531 46.90625 -29.21875 C 49.851562 -29.789062 52.546875 -30.078125 54.984375 -30.078125 C 60.203125 -30.078125 64.859375 -29.210938 68.953125 -27.484375 C 73.054688 -25.765625 76.296875 -23.257812 78.671875 -19.96875 C 81.046875 -16.6875 82.234375 -12.671875 82.234375 -7.921875 C 82.234375 -3.722656 81.046875 0.148438 78.671875 3.703125 C 76.296875 7.265625 73.054688 10.09375 68.953125 12.1875 C 64.859375 14.289062 60.203125 15.34375 54.984375 15.34375 C 48.890625 15.34375 43.570312 14.035156 39.03125 11.421875 C 34.488281 8.816406 30.726562 5.316406 27.75 0.921875 C 25.914062 3.765625 24.375 6.976562 23.125 10.5625 C 21.875 14.15625 21.25 17.582031 21.25 20.84375 L 0.109375 20.84375 C 0.109375 15.21875 1.035156 10.046875 2.890625 5.328125 C 4.753906 0.617188 7.257812 -3.628906 10.40625 -7.421875 C 13.5625 -11.210938 17.039062 -14.53125 20.84375 -17.375 C 20.5 -19.269531 20.238281 -21.179688 20.0625 -23.109375 C 19.894531 -25.046875 19.8125 -27.03125 19.8125 -29.0625 C 19.8125 -36.789062 20.625 -44.160156 22.25 -51.171875 C 23.882812 -58.191406 26.359375 -64.425781 29.671875 -69.875 C 32.992188 -75.332031 37.28125 -79.632812 42.53125 -82.78125 C 47.78125 -85.9375 54 -87.515625 61.1875 -87.515625 C 68.976562 -87.515625 75.175781 -86.425781 79.78125 -84.25 C 84.394531 -82.082031 87.734375 -79.1875 89.796875 -75.5625 C 91.867188 -71.9375 92.90625 -67.957031 92.90625 -63.625 C 92.90625 -58.132812 91.410156 -53.335938 88.421875 -49.234375 C 85.441406 -45.140625 81.34375 -41.957031 76.125 -39.6875 C 70.90625 -37.414062 64.910156 -36.28125 58.140625 -36.28125 C 51.085938 -36.28125 43.664062 -37.0625 35.875 -38.625 C 35.8125 -37.675781 35.757812 -36.726562 35.71875 -35.78125 C 35.6875 -34.832031 35.671875 -33.882812 35.671875 -32.9375 C 35.671875 -26.5625 36.347656 -20.863281 37.703125 -15.84375 C 39.054688 -10.832031 41.191406 -6.882812 44.109375 -4 C 47.023438 -1.125 50.820312 0.3125 55.5 0.3125 Z M 21.859375 -60.171875 C 20.628906 -57.117188 19.707031 -54.253906 19.09375 -51.578125 C 18.488281 -48.898438 18.019531 -46.273438 17.6875 -43.703125 C 12.125 -45.734375 6.632812 -48.15625 1.21875 -50.96875 C -4.195312 -53.78125 -9.347656 -56.945312 -14.234375 -60.46875 L -14.234375 -83.75 C -9.015625 -79.28125 -3.320312 -74.992188 2.84375 -70.890625 C 9.007812 -66.796875 15.347656 -63.222656 21.859375 -60.171875 Z M 61.09375 -71.359375 C 57.226562 -71.359375 53.867188 -70.5625 51.015625 -68.96875 C 48.171875 -67.375 45.785156 -65.21875 43.859375 -62.5 C 41.929688 -59.789062 40.351562 -56.8125 39.125 -53.5625 C 46.175781 -51.394531 52.988281 -50.3125 59.5625 -50.3125 C 64.164062 -50.3125 67.941406 -51.289062 70.890625 -53.25 C 73.835938 -55.21875 75.3125 -57.726562 75.3125 -60.78125 C 75.3125 -63.832031 74.09375 -66.359375 71.65625 -68.359375 C 69.21875 -70.359375 65.695312 -71.359375 61.09375 -71.359375 Z M 61.09375 -71.359375 "/></g></g></g></g></g></svg>